<svg width="264" height="264" viewBox="0 0 264 264" fill="none" xmlns="http://www.w3.org/2000/svg">
<g clip-path="url(#clip0_7_92)">
<path d="M264 0H0V264H264V0Z" fill="black"/>
<g clip-path="url(#clip1_7_92)">
<path d="M68.129 141.125C72.6385 141.125 76.2943 137.487 76.2943 133C76.2943 128.513 72.6385 124.875 68.129 124.875C63.6194 124.875 59.9637 128.513 59.9637 133C59.9637 137.487 63.6194 141.125 68.129 141.125Z" fill="white"/>
<path d="M82.8408 152.237C83.5356 152.929 83.4659 154.073 82.6495 154.617C78.4964 157.385 73.5011 159 68.127 159C62.7528 159 57.7575 157.385 53.6043 154.617C52.788 154.073 52.7183 152.929 53.413 152.237L59.3801 146.3C59.9194 145.763 60.756 145.678 61.4349 146.024C63.442 147.047 65.7167 147.625 68.127 147.625C70.5372 147.625 72.8119 147.047 74.8192 146.024C75.498 145.678 76.3344 145.763 76.8738 146.3L82.8408 152.237Z" fill="white"/>
<path d="M82.6516 111.383C83.4679 111.927 83.5376 113.071 82.8429 113.762L76.8759 119.7C76.3365 120.237 75.4997 120.322 74.821 119.975C72.8137 118.952 70.5391 118.375 68.1289 118.375C60.0117 118.375 53.4314 124.923 53.4314 133C53.4314 135.398 54.0115 137.662 55.0398 139.659C55.3876 140.335 55.3024 141.167 54.7631 141.704L48.796 147.641C48.1012 148.332 46.9511 148.263 46.4043 147.451C43.6225 143.318 42 138.348 42 133C42 118.641 53.6983 107 68.1289 107C73.5032 107 78.4985 108.614 82.6516 111.383Z" fill="white"/>
<path fill-rule="evenodd" clip-rule="evenodd" d="M127.328 112.281C127.328 112.057 127.51 111.875 127.736 111.875H133.86C134.085 111.875 134.268 112.057 134.268 112.281V153.719C134.268 153.943 134.085 154.125 133.86 154.125H127.736C127.51 154.125 127.328 153.943 127.328 153.719V112.281ZM118.685 145.336C118.522 145.196 118.279 145.206 118.123 145.353C117.168 146.25 116.051 146.967 114.825 147.467C113.482 148.016 112.037 148.293 110.58 148.28C109.35 148.316 108.124 148.106 106.98 147.664C105.836 147.222 104.797 146.556 103.927 145.708C102.346 144.102 101.437 141.81 101.437 139.077C101.437 133.607 105.094 129.865 110.58 129.865C112.052 129.845 113.509 130.142 114.849 130.733C116.064 131.27 117.156 132.038 118.059 132.989C118.214 133.152 118.47 133.171 118.641 133.024L122.775 129.465C122.944 129.319 122.964 129.065 122.815 128.9C119.706 125.442 114.834 123.656 110.201 123.656C100.872 123.656 94.2581 129.918 94.2581 139.129C94.2581 143.685 95.9019 147.522 98.6742 150.231C101.446 152.94 105.396 154.531 109.953 154.531C115.667 154.531 120.266 152.351 122.962 149.554C123.12 149.39 123.103 149.129 122.93 148.98L118.685 145.336ZM168.003 141.105C167.98 141.308 167.806 141.461 167.6 141.461H146.148C145.887 141.461 145.693 141.701 145.761 141.952C146.828 145.888 150.01 148.271 154.353 148.271C155.817 148.301 157.269 148.001 158.595 147.394C159.831 146.829 160.927 146.011 161.811 144.997C161.918 144.874 162.104 144.856 162.229 144.96L166.542 148.697C166.707 148.84 166.73 149.087 166.588 149.253C163.985 152.31 159.766 154.531 153.976 154.531C145.069 154.531 138.351 148.394 138.351 139.069C138.351 134.494 139.933 130.658 142.571 127.95C143.964 126.557 145.633 125.457 147.476 124.72C149.319 123.982 151.297 123.621 153.288 123.659C162.316 123.659 168.154 129.977 168.154 138.7C168.143 139.503 168.092 140.306 168.003 141.105ZM145.89 135.444C145.814 135.694 146.008 135.939 146.272 135.939H160.536C160.799 135.939 160.994 135.693 160.921 135.441C159.949 132.093 157.482 129.858 153.651 129.858C152.525 129.823 151.403 130.026 150.364 130.453C149.325 130.881 148.392 131.523 147.63 132.335C146.828 133.239 146.236 134.3 145.89 135.444ZM189.379 123.661C189.606 123.658 189.792 123.841 189.792 124.067V130.89C189.792 131.126 189.59 131.312 189.353 131.295C188.691 131.246 188.065 131.205 187.655 131.205C182.313 131.205 179.177 134.946 179.177 139.857V153.719C179.177 153.943 178.994 154.125 178.769 154.125H172.645C172.419 154.125 172.236 153.943 172.236 153.719V124.489C172.236 124.264 172.419 124.082 172.645 124.082H178.769C178.994 124.082 179.177 124.264 179.177 124.489V128.591C179.177 128.615 179.196 128.633 179.219 128.633C179.232 128.633 179.245 128.627 179.253 128.616C181.647 125.435 185.18 123.666 188.913 123.666L189.379 123.661ZM205.968 141.529C205.993 141.503 206.028 141.488 206.065 141.488C206.11 141.488 206.153 141.511 206.177 141.55L213.92 153.933C213.995 154.052 214.126 154.125 214.267 154.125H221.228C221.549 154.125 221.744 153.775 221.576 153.505L210.952 136.449C210.856 136.295 210.875 136.097 210.997 135.962L221.232 124.725C221.47 124.464 221.284 124.046 220.93 124.046H213.667C213.553 124.046 213.444 124.094 213.366 124.178L201.524 137.023C201.272 137.296 200.815 137.119 200.815 136.748V112.281C200.815 112.057 200.632 111.875 200.407 111.875H194.283C194.057 111.875 193.874 112.057 193.874 112.281V153.719C193.874 153.943 194.057 154.125 194.283 154.125H200.407C200.632 154.125 200.815 153.943 200.815 153.719V147.198C200.815 147.095 200.854 146.996 200.924 146.921L205.968 141.529Z" fill="white"/>
</g>
</g>
<defs>
<clipPath id="clip0_7_92">
<rect width="264" height="264" fill="white"/>
</clipPath>
<clipPath id="clip1_7_92">
<rect width="180" height="52" fill="white" transform="translate(42 107)"/>
</clipPath>
</defs>
</svg>
