<svg width="264" height="264" viewBox="0 0 264 264" fill="none" xmlns="http://www.w3.org/2000/svg">
<g clip-path="url(#clip0_7_123)">
<path d="M68.129 140.125C72.6386 140.125 76.2943 136.487 76.2943 132C76.2943 127.513 72.6386 123.875 68.129 123.875C63.6195 123.875 59.9637 127.513 59.9637 132C59.9637 136.487 63.6195 140.125 68.129 140.125Z" fill="black"/>
<path d="M82.8409 151.237C83.5356 151.929 83.4659 153.073 82.6496 153.617C78.4965 156.385 73.5012 158 68.127 158C62.7528 158 57.7575 156.385 53.6043 153.617C52.7881 153.073 52.7183 151.929 53.4131 151.237L59.3801 145.3C59.9195 144.763 60.7561 144.678 61.4349 145.024C63.4421 146.047 65.7168 146.625 68.127 146.625C70.5372 146.625 72.812 146.047 74.8193 145.024C75.498 144.678 76.3345 144.763 76.8739 145.3L82.8409 151.237Z" fill="black"/>
<path d="M82.6516 110.383C83.4679 110.927 83.5376 112.071 82.8429 112.762L76.8759 118.7C76.3365 119.237 75.4997 119.322 74.821 118.975C72.8137 117.952 70.5391 117.375 68.1289 117.375C60.0117 117.375 53.4314 123.923 53.4314 132C53.4314 134.398 54.0115 136.662 55.0398 138.659C55.3876 139.335 55.3024 140.167 54.7631 140.704L48.796 146.641C48.1012 147.332 46.9511 147.263 46.4043 146.451C43.6225 142.318 42 137.348 42 132C42 117.641 53.6983 106 68.1289 106C73.5032 106 78.4985 107.614 82.6516 110.383Z" fill="black"/>
<path fill-rule="evenodd" clip-rule="evenodd" d="M127.328 111.281C127.328 111.057 127.51 110.875 127.736 110.875H133.86C134.085 110.875 134.268 111.057 134.268 111.281V152.719C134.268 152.943 134.085 153.125 133.86 153.125H127.736C127.51 153.125 127.328 152.943 127.328 152.719V111.281ZM118.685 144.336C118.522 144.196 118.279 144.206 118.123 144.353C117.168 145.25 116.051 145.967 114.825 146.467C113.482 147.016 112.037 147.293 110.58 147.28C109.35 147.316 108.124 147.106 106.98 146.664C105.836 146.222 104.797 145.556 103.927 144.708C102.346 143.102 101.437 140.81 101.437 138.077C101.437 132.607 105.094 128.865 110.58 128.865C112.052 128.845 113.509 129.142 114.849 129.733C116.064 130.27 117.156 131.038 118.059 131.989C118.214 132.152 118.47 132.171 118.641 132.024L122.775 128.465C122.944 128.319 122.964 128.065 122.815 127.9C119.706 124.442 114.834 122.656 110.201 122.656C100.872 122.656 94.2581 128.918 94.2581 138.129C94.2581 142.685 95.9019 146.522 98.6742 149.231C101.446 151.94 105.396 153.531 109.953 153.531C115.667 153.531 120.266 151.351 122.962 148.554C123.12 148.39 123.103 148.129 122.93 147.98L118.685 144.336ZM168.003 140.105C167.98 140.308 167.806 140.461 167.6 140.461H146.148C145.887 140.461 145.693 140.701 145.761 140.952C146.828 144.888 150.01 147.271 154.353 147.271C155.817 147.301 157.269 147.001 158.595 146.394C159.831 145.829 160.927 145.011 161.811 143.997C161.918 143.874 162.104 143.856 162.229 143.96L166.542 147.697C166.707 147.84 166.73 148.087 166.588 148.253C163.985 151.31 159.766 153.531 153.976 153.531C145.069 153.531 138.351 147.394 138.351 138.069C138.351 133.494 139.933 129.658 142.571 126.95C143.964 125.557 145.633 124.457 147.476 123.72C149.319 122.982 151.297 122.621 153.288 122.659C162.316 122.659 168.154 128.977 168.154 137.7C168.143 138.503 168.092 139.306 168.003 140.105ZM145.89 134.444C145.814 134.694 146.008 134.939 146.272 134.939H160.536C160.799 134.939 160.994 134.693 160.921 134.441C159.949 131.093 157.482 128.858 153.651 128.858C152.525 128.823 151.403 129.026 150.364 129.453C149.325 129.881 148.392 130.523 147.63 131.335C146.828 132.239 146.236 133.3 145.89 134.444ZM189.379 122.661C189.606 122.658 189.792 122.841 189.792 123.067V129.89C189.792 130.126 189.59 130.312 189.353 130.295C188.691 130.246 188.065 130.205 187.655 130.205C182.313 130.205 179.177 133.946 179.177 138.857V152.719C179.177 152.943 178.994 153.125 178.769 153.125H172.645C172.419 153.125 172.236 152.943 172.236 152.719V123.489C172.236 123.264 172.419 123.082 172.645 123.082H178.769C178.994 123.082 179.177 123.264 179.177 123.489V127.591C179.177 127.615 179.196 127.633 179.219 127.633C179.232 127.633 179.245 127.627 179.253 127.616C181.647 124.435 185.18 122.666 188.913 122.666L189.379 122.661ZM205.968 140.529C205.993 140.503 206.028 140.488 206.065 140.488C206.11 140.488 206.153 140.511 206.177 140.55L213.92 152.933C213.995 153.052 214.126 153.125 214.267 153.125H221.228C221.549 153.125 221.744 152.775 221.576 152.505L210.952 135.449C210.856 135.295 210.875 135.097 210.997 134.962L221.232 123.725C221.47 123.464 221.284 123.046 220.93 123.046H213.667C213.553 123.046 213.444 123.094 213.366 123.178L201.524 136.023C201.272 136.296 200.815 136.119 200.815 135.748V111.281C200.815 111.057 200.632 110.875 200.407 110.875H194.283C194.057 110.875 193.874 111.057 193.874 111.281V152.719C193.874 152.943 194.057 153.125 194.283 153.125H200.407C200.632 153.125 200.815 152.943 200.815 152.719V146.198C200.815 146.095 200.854 145.996 200.924 145.921L205.968 140.529Z" fill="black"/>
</g>
<defs>
<clipPath id="clip0_7_123">
<rect width="180" height="52" fill="white" transform="translate(42 106)"/>
</clipPath>
</defs>
</svg>
