<svg width="264" height="264" viewBox="0 0 264 264" fill="none" xmlns="http://www.w3.org/2000/svg">
<path d="M99.5325 131.608H111.975C111.975 130.279 111.428 129.062 110.337 127.954C109.243 126.847 107.716 126.296 105.754 126.296C104.126 126.28 102.559 126.906 101.393 128.037C100.151 129.198 99.5325 130.391 99.5325 131.608ZM119.53 134.706C119.53 135.223 119.494 135.961 119.42 136.92H99.3637C99.8812 138.803 100.837 140.304 102.226 141.43C103.614 142.557 105.382 143.12 107.531 143.12C110.605 143.12 113.345 142.27 115.753 140.573L117.809 146.715C117.512 146.901 117.096 147.141 116.558 147.437C116.02 147.73 114.855 148.118 113.059 148.598C111.22 149.082 109.324 149.323 107.421 149.315C102.309 149.315 98.457 147.952 95.865 145.222C93.2707 142.492 91.9747 138.987 91.9747 134.706C91.9747 130.427 93.1987 126.921 95.6422 124.191C98.0857 121.461 101.605 120.096 106.197 120.096C110.494 120.096 113.791 121.378 116.088 123.942C118.383 126.507 119.53 130.095 119.53 134.706ZM130.643 148.432L119.085 120.979H127.084L133.307 137.803L139.528 120.979H147.529L135.973 148.429H130.641L130.643 148.432ZM156.419 140.02C157.9 141.495 159.679 142.232 161.752 142.232C163.826 142.232 165.606 141.495 167.086 140.02C168.567 138.543 169.309 136.772 169.309 134.708C169.309 132.641 168.567 130.871 167.086 129.393C165.606 127.919 163.826 127.179 161.754 127.179C159.679 127.179 157.9 127.919 156.421 129.393C154.936 130.871 154.198 132.641 154.198 134.706C154.198 136.772 154.939 138.547 156.419 140.02ZM151.363 124.357C154.216 121.517 157.679 120.096 161.754 120.096C165.826 120.096 169.291 121.517 172.142 124.355C174.993 127.199 176.419 130.649 176.419 134.706C176.419 138.765 174.993 142.214 172.142 145.056C169.289 147.896 165.826 149.315 161.754 149.315C157.679 149.315 154.216 147.896 151.363 145.056C148.513 142.214 147.088 138.765 147.088 134.706C147.088 130.649 148.513 127.197 151.363 124.357ZM211.087 120.096C214.345 120.096 216.937 121.156 218.863 123.279C220.789 125.399 221.752 128.472 221.752 132.491V148.432H214.642V133.379C214.642 131.202 214.316 129.624 213.67 128.647C213.02 127.67 211.864 127.179 210.196 127.179C206.641 127.179 204.864 129.541 204.864 134.262V148.432H197.754V133.379C197.754 131.238 197.401 129.671 196.696 128.674C195.992 127.679 194.863 127.181 193.308 127.181C189.753 127.181 187.975 129.541 187.975 134.264V148.429H180.865V120.984H187.975V123.64C189.865 121.28 192.232 120.098 195.085 120.098C198.566 120.098 201.142 121.336 202.807 123.806C205.03 121.336 207.789 120.098 211.087 120.098V120.096ZM227.53 120.982H234.64V148.432H227.53V120.979V120.982ZM234.559 116.028C234.108 116.487 233.567 116.849 232.97 117.092C232.373 117.335 231.733 117.453 231.088 117.44C229.715 117.44 228.559 116.969 227.614 116.028C226.669 115.087 226.196 113.935 226.196 112.57C226.183 111.927 226.302 111.289 226.546 110.694C226.79 110.1 227.153 109.561 227.614 109.111C228.065 108.652 228.607 108.29 229.204 108.047C229.801 107.804 230.443 107.686 231.088 107.699C231.733 107.686 232.373 107.805 232.97 108.047C233.567 108.29 234.108 108.652 234.559 109.111C235.504 110.053 235.977 111.205 235.977 112.57C235.977 113.937 235.504 115.087 234.559 116.028Z" fill="white"/>
<path d="M56.103 124.297H38.553C38.2886 124.296 38.0303 124.217 37.8114 124.07C37.5925 123.922 37.4231 123.712 37.3251 123.467C37.227 123.223 37.2047 122.955 37.2612 122.697C37.3176 122.44 37.4502 122.205 37.6418 122.024L48.2483 112.012L56.1053 124.299L56.103 124.297Z" fill="white"/>
<path d="M81.2018 137.079L80.9048 137.097H76.1078L67.9245 124.299H73.0275L81.2018 137.079Z" fill="white"/>
<path d="M51.3465 140.703H68.8987C70.0935 140.703 70.6762 142.156 69.8077 142.976L59.2012 152.988L51.3465 140.703Z" fill="white"/>
<path d="M26.25 127.921L26.547 127.903H31.344L39.5273 140.701H34.4243L26.25 127.921Z" fill="white"/>
<path d="M31.344 127.905H42.1485C42.783 127.905 43.3702 128.228 43.71 128.757L47.0175 133.934L51.3442 140.703L59.199 152.986L54.4627 157.458C54.1423 157.76 53.7587 157.988 53.3394 158.125C52.9201 158.263 52.4755 158.306 52.0374 158.252C51.5994 158.198 51.1787 158.048 50.8057 157.813C50.4326 157.578 50.1163 157.264 49.8795 156.893L46.6125 151.787L44.61 148.649L43.2037 146.453L41.946 144.487L39.525 140.703L31.344 127.905Z" fill="white"/>
<path d="M76.1077 137.095H65.301C64.9903 137.094 64.6846 137.016 64.4122 136.867C64.1397 136.719 63.9092 136.504 63.7417 136.243L60.432 131.066L56.1052 124.297L48.2505 112.014L52.9867 107.544C53.3069 107.242 53.6902 107.014 54.1094 106.876C54.5285 106.738 54.973 106.695 55.411 106.748C55.849 106.802 56.2697 106.951 56.643 107.186C57.0162 107.42 57.3328 107.734 57.57 108.105L60.837 113.215L62.8417 116.349L64.2457 118.545L65.5057 120.513L67.9245 124.299L76.1077 137.097V137.095Z" fill="white"/>
</svg>
