<svg width="2068" height="2068" viewBox="0 0 2068 2068" fill="none" xmlns="http://www.w3.org/2000/svg">
<rect width="2068" height="2068" fill="black"/>
<path d="M309.409 1183.75V887.307H430.103C495.32 887.307 538.939 925.844 538.939 985.979C538.939 1024.09 519.035 1054.58 488.121 1069.41L546.562 1183.75H476.263L426.292 1084.23H372.932V1183.75H309.409ZM425.021 940.242H372.932V1031.29H425.021C455.089 1031.29 474.146 1013.51 474.146 985.979C474.146 958.029 455.089 940.242 425.021 940.242ZM672.86 1186.29C600.444 1186.29 556.825 1142.67 556.825 1075.34C556.825 1007.58 601.291 963.534 668.625 963.534C733.842 963.534 777.885 1004.19 778.732 1068.14C778.732 1074.49 778.308 1081.69 777.038 1088.46H619.077V1091.43C620.348 1122.34 640.252 1140.98 670.319 1140.98C694.458 1140.98 711.398 1130.39 716.479 1110.06H775.344C768.568 1152.41 730.878 1186.29 672.86 1186.29ZM620.348 1049.5H718.597C714.362 1022.82 696.152 1008 669.049 1008C643.216 1008 623.736 1023.67 620.348 1049.5ZM799.546 1111.33H856.293C858.41 1130.39 874.926 1143.52 904.147 1143.52C929.133 1143.52 944.378 1135.47 944.378 1120.22C944.378 1102.44 929.556 1101.17 894.407 1096.51C843.588 1090.58 804.204 1079.15 804.204 1034.26C804.204 991.061 841.894 962.687 897.795 963.111C956.236 963.111 996.467 988.943 999.431 1033.41H942.261C940.567 1016.05 924.051 1005.46 899.912 1005.46C876.62 1005.46 861.375 1013.93 861.375 1027.9C861.375 1044.42 880.008 1046.11 911.346 1049.93C961.318 1055.01 1002.82 1066.44 1002.82 1115.57C1002.82 1158.76 962.165 1186.29 903.723 1186.29C843.165 1186.29 802.087 1157.92 799.546 1111.33ZM1141.84 1186.29C1069.42 1186.29 1025.8 1142.67 1025.8 1075.34C1025.8 1007.58 1070.27 963.534 1137.6 963.534C1202.82 963.534 1246.86 1004.19 1247.71 1068.14C1247.71 1074.49 1247.29 1081.69 1246.02 1088.46H1088.06V1091.43C1089.33 1122.34 1109.23 1140.98 1139.3 1140.98C1163.44 1140.98 1180.38 1130.39 1185.46 1110.06H1244.32C1237.55 1152.41 1199.86 1186.29 1141.84 1186.29ZM1089.33 1049.5H1187.58C1183.34 1022.82 1165.13 1008 1138.03 1008C1112.19 1008 1092.71 1023.67 1089.33 1049.5ZM1405.27 963.534C1452.28 963.534 1492.51 988.52 1492.51 1063.05V1183.75H1432.8V1068.98C1432.8 1032.14 1418.82 1012.66 1388.75 1012.66C1357.84 1012.66 1340.05 1034.68 1340.05 1072.37V1183.75H1280.34V966.075H1332.43L1337.94 993.178C1351.91 976.239 1371.82 963.534 1405.27 963.534ZM1687.27 993.178V887.307H1746.98V1183.75H1694.89L1688.96 1153.68C1674.56 1172.31 1653.39 1186.29 1622.05 1186.29C1563.61 1186.29 1520.84 1143.52 1520.84 1074.49C1520.84 1007.15 1563.61 963.534 1621.63 963.534C1651.69 963.534 1673.29 975.392 1687.27 993.178ZM1635.18 1137.59C1667.79 1137.59 1688.11 1112.18 1688.11 1075.34C1688.11 1038.07 1667.79 1012.24 1635.18 1012.24C1602.57 1012.24 1581.82 1037.64 1581.82 1074.91C1581.82 1112.18 1602.57 1137.59 1635.18 1137.59Z" fill="white"/>
</svg>
